# xmcd
#
# Track frame offsets: 
#        150
#        14856
#        43426
#        55335
#        67808
#        92130
#        124578
#        154508
#        185001
#        206829
#        235736
#        248530
#        261261
#        276340
#        289804
#
# Disc length: 4176 seconds
#
# Revision: 2
# Processed by: cddbd v1.5.2PL0 Copyright (c) Steve Scherf et al.
# Submitted via: ExactAudioCopyFreeDBPlugin 1.0
#
DISCID=e2104e0f
DTITLE=Various Artist - Simply Late Night Jazz - CD 4 Piano At Dawn
DYEAR=2008
DGENRE=Jazz
TTITLE0=Red Garland - The Second Time Around
TTITLE1=Eliane Elias - One Side Of You
TTITLE2=Hank Jones - Blue Monk
TTITLE3=Hampton Hawes - It's You Or No One
TTITLE4=Arturo O'Farrel - Poinciana
TTITLE5=Renée Rosnes - Nature Boy
TTITLE6=Bob James - Feel Like Making Love
TTITLE7=Mulgrew Miller - One's Own Room
TTITLE8=Kenny Barron - Procession
TTITLE9=Cedar Walton - As Long As There's Music
TTITLE10=Marian McPartland - Love Is Here To Stay
TTITLE11=Paul Smith - How About You
TTITLE12=George Shearing - Sorry Wrong Rhumba
TTITLE13=Erroll Garner - All The Things You Are
TTITLE14=Darrel Grant - Please Send Me Somebody To Love
EXTD=YEAR: 2008
EXTT0=
EXTT1=
EXTT2=
EXTT3=
EXTT4=
EXTT5=
EXTT6=
EXTT7=
EXTT8=
EXTT9=
EXTT10=
EXTT11=
EXTT12=
EXTT13=
EXTT14=
PLAYORDER=
